G04 ================== begin FILE IDENTIFICATION RECORD ==================*
G04 Layout Name:  D:/Misc/Misc/808BD/worklib/808bd/physical/808bd23.brd*
G04 Film Name:    BOTTOM*
G04 File Format:  Gerber RS274X*
G04 File Origin:  Cadence Allegro 16.3-S021*
G04 Origin Date:  Fri Jan 04 09:00:55 2013*
G04 *
G04 Layer:  ETCH/BOTTOM*
G04 Layer:  PIN/BOTTOM*
G04 Layer:  VIA CLASS/BOTTOM*
G04 *
G04 Offset:    (0.000 0.000)*
G04 Mirror:    No*
G04 Mode:      Positive*
G04 Rotation:  0*
G04 FullContactRelief:  No*
G04 UndefLineWidth:     10.000*
G04 ================== end FILE IDENTIFICATION RECORD ====================*
%FSLAX53Y53*MOIN*%
%IR0*IPPOS*OFA0.00000B0.00000*MIA0B0*SFA1.00000B1.00000*%
%ADD12C,.04*%
%ADD13C,.06*%
%ADD10C,.07*%
%ADD15C,.08*%
%ADD14R,.06X.06*%
%ADD11R,.07X.07*%
%ADD16C,.03*%
G75*
%LPD*%
G75*
G54D10*
X15462Y10235D03*
X15562D03*
X16070Y11150D03*
X16588Y10235D03*
X16688D03*
X17300Y10940D03*
X17400D03*
X17713Y10235D03*
X17660Y10740D03*
X17812Y10235D03*
X18838D03*
X18938D03*
G54D11*
X15662D03*
X16070Y11250D03*
X16788Y10235D03*
X17660Y10640D03*
X17500Y10940D03*
X17912Y10235D03*
X19038D03*
G54D12*
X16110Y10780D03*
X16370D03*
X16400Y11340D03*
Y11570D03*
X16953Y11123D03*
X17217D03*
X17570Y10480D03*
X17870D03*
G54D13*
X16592Y10680D03*
X17280Y10601D03*
X17920Y10708D03*
X17861Y11140D03*
G54D14*
X16690Y10680D03*
X17280D03*
X17920Y10610D03*
X17940Y11140D03*
G54D15*
X17440Y11340D03*
X17932D03*
G54D16*
G01X16370Y10780D02*
X16110D01*
G01X16400Y11340D02*
Y11570D01*
G01X16953Y11123D02*
X17217D01*
G01X17870Y10480D02*
X17770D01*
X17720Y10530D01*
X17620D01*
X17570Y10480D01*
M02*
