G04 ================== begin FILE IDENTIFICATION RECORD ==================*
G04 Layout Name:  D:/Misc/Misc/808BD/worklib/808bd/physical/808bd24.brd*
G04 Film Name:    SILK*
G04 File Format:  Gerber RS274X*
G04 File Origin:  Cadence Allegro 16.6-P004*
G04 Origin Date:  Sat Jun 08 07:32:07 2013*
G04 *
G04 Layer:  VIA CLASS/TOP*
G04 Layer:  REF DES/SILKSCREEN_TOP*
G04 Layer:  PIN/TOP*
G04 Layer:  PACKAGE GEOMETRY/PLACE_BOUND_BOTTOM*
G04 Layer:  PACKAGE GEOMETRY/SILKSCREEN_TOP*
G04 Layer:  MANUFACTURING/XSECTION_CHART*
G04 Layer:  DRC ERROR CLASS/TOP*
G04 Layer:  BOARD GEOMETRY/OUTLINE*
G04 Layer:  BOARD GEOMETRY/SILKSCREEN_TOP*
G04 *
G04 Offset:    (0.000 0.000)*
G04 Mirror:    No*
G04 Mode:      Positive*
G04 Rotation:  0*
G04 FullContactRelief:  No*
G04 UndefLineWidth:     10.000*
G04 ================== end FILE IDENTIFICATION RECORD ====================*
%FSLAX53Y53*MOIN*%
%IR0*IPPOS*OFA0.00000B0.00000*MIA0B0*SFA1.00000B1.00000*%
%ADD22R,.106299X.070866*%
%ADD21O,.07X.024*%
%ADD12R,.06X.052*%
%ADD19R,.07X.024*%
%ADD15R,.04X.028*%
%ADD13R,.052X.06*%
%ADD23R,.028X.04*%
%ADD18R,.04X.055*%
%ADD14C,.04*%
%ADD17C,.06*%
%ADD10C,.07*%
%ADD20C,.08*%
%ADD16R,.06X.06*%
%ADD11R,.07X.07*%
%ADD24C,.009843*%
%ADD25C,.01*%
G75*
%LPD*%
G75*
G36*
G01X15402Y10100D02*
Y10345D01*
X15722D01*
Y10100D01*
X15402D01*
G37*
G36*
G01X15960Y11090D02*
Y11310D01*
X16180D01*
Y11090D01*
X15960D01*
G37*
G36*
G01X16490Y10680D02*
G02X16640Y10830I149J1D01*
G02X16490Y10680I1J-151D01*
G37*
G36*
G01X16528Y10100D02*
Y10345D01*
X16848D01*
Y10100D01*
X16528D01*
G37*
G36*
G01X17275Y10515D02*
G02X17155Y10635I4J124D01*
G02X17275Y10515I125J5D01*
G37*
G36*
G01X17240Y10805D02*
Y11050D01*
X17560D01*
Y10805D01*
X17240D01*
G37*
G36*
G01X17393Y11403D02*
X17979D01*
Y11277D01*
X17393D01*
Y11403D01*
G37*
G36*
G01X17652Y10100D02*
Y10345D01*
X17972D01*
Y10100D01*
X17652D01*
G37*
G36*
G01X17770Y10800D02*
Y10580D01*
X17550D01*
Y10800D01*
X17770D01*
G37*
G36*
G01X17920Y10810D02*
G02X18070Y10660I1J-149D01*
G02X17920Y10810I-151J-1D01*
G37*
G36*
G01X17775Y11145D02*
G02X17895Y11265I124J-4D01*
G02X17775Y11145I5J-125D01*
G37*
G36*
G01X18778Y10100D02*
Y10345D01*
X19098D01*
Y10100D01*
X18778D01*
G37*
G54D10*
X15562Y10235D03*
X15462D03*
X16070Y11150D03*
X16688Y10235D03*
X16588D03*
X17400Y10940D03*
X17300D03*
X17713Y10235D03*
X17660Y10740D03*
X17812Y10235D03*
X18938D03*
X18838D03*
G54D11*
X15662D03*
X16070Y11250D03*
X16788Y10235D03*
X17660Y10640D03*
X17500Y10940D03*
X17912Y10235D03*
X19038D03*
G54D20*
X17440Y11340D03*
X17932D03*
G54D12*
X15920Y10193D03*
Y10267D03*
X16140Y11527D03*
Y11453D03*
X16260Y11043D03*
Y11117D03*
X16270Y11253D03*
Y11327D03*
X16670Y11043D03*
Y11117D03*
X16700Y11273D03*
Y11347D03*
X16540Y11213D03*
Y11287D03*
X17110Y10647D03*
Y10573D03*
X16970Y10707D03*
Y10633D03*
X17080Y11243D03*
Y11317D03*
X17240D03*
Y11243D03*
X17360Y11597D03*
Y11523D03*
X17600Y11353D03*
Y11427D03*
X17690Y11143D03*
Y11217D03*
X17930Y10793D03*
X17800Y10803D03*
X17930Y10867D03*
X17800Y10877D03*
X18110Y11707D03*
Y11633D03*
X18570Y10173D03*
Y10247D03*
G54D21*
X17359Y11255D03*
G54D13*
X15737Y10490D03*
X15663D03*
X16523Y11610D03*
X16503Y11490D03*
X16597Y11610D03*
X16753Y11520D03*
X16827D03*
X16577Y11490D03*
X17333Y10490D03*
X17407D03*
X17297Y11430D03*
X17223D03*
X17527Y10630D03*
X17453D03*
X18307Y11040D03*
X18233D03*
X18167Y11290D03*
X18093D03*
X18173Y11170D03*
X18247D03*
G54D22*
X17650Y10823D03*
Y10997D03*
X17750Y11393D03*
Y11567D03*
X17970Y11677D03*
Y11503D03*
X18260Y11717D03*
Y11543D03*
G54D14*
X16110Y10780D03*
X16370D03*
X16400Y11340D03*
Y11570D03*
X16953Y11123D03*
X17217D03*
X17570Y10480D03*
X17870D03*
G54D23*
X18044Y10857D03*
X18070Y10943D03*
X18096Y10857D03*
X18364Y11417D03*
X18416D03*
X18390Y11503D03*
G54D24*
G01X16367Y11153D02*
Y11027D01*
X16462D01*
Y11059D01*
X16533D01*
Y11121D01*
X16462D01*
Y11153D01*
X16367D01*
G01X16247Y11553D02*
Y11427D01*
X16342D01*
Y11459D01*
X16413D01*
Y11521D01*
X16342D01*
Y11553D01*
X16247D01*
G01X16927Y11653D02*
Y11527D01*
X17022D01*
Y11559D01*
X17093D01*
Y11621D01*
X17022D01*
Y11653D01*
X16927D01*
G01X17467Y11613D02*
Y11487D01*
X17562D01*
Y11519D01*
X17633D01*
Y11581D01*
X17562D01*
Y11613D01*
X17467D01*
G01X18007Y10817D02*
X18133D01*
Y10912D01*
X18101D01*
Y10983D01*
X18039D01*
Y10912D01*
X18007D01*
Y10817D01*
G01X18327Y11377D02*
X18453D01*
Y11472D01*
X18421D01*
Y11543D01*
X18359D01*
Y11472D01*
X18327D01*
Y11377D01*
G54D15*
X16407Y11116D03*
X16493Y11090D03*
X16407Y11064D03*
X16287Y11516D03*
X16373Y11490D03*
X16287Y11464D03*
X16967Y11616D03*
X17053Y11590D03*
X16967Y11564D03*
X17507Y11576D03*
X17593Y11550D03*
X17507Y11524D03*
G54D25*
G01X15965Y10308D02*
Y10152D01*
X15875D01*
Y10308D01*
X15965D01*
G01X15778Y10445D02*
Y10535D01*
X15622D01*
Y10445D01*
X15778D01*
G01X16185Y11568D02*
X16095D01*
Y11412D01*
X16185D01*
Y11568D01*
G01X16215Y11002D02*
X16305D01*
Y11158D01*
X16215D01*
Y11002D01*
G01X16495Y11172D02*
X16585D01*
Y11328D01*
X16495D01*
Y11172D01*
G01X16225Y11212D02*
X16315D01*
Y11368D01*
X16225D01*
Y11212D01*
G01X16462Y11535D02*
Y11445D01*
X16618D01*
Y11535D01*
X16462D01*
G01X16482Y11655D02*
X16638D01*
Y11565D01*
X16482D01*
Y11655D01*
G01X16625Y11002D02*
X16715D01*
Y11158D01*
X16625D01*
Y11002D01*
G01X16655Y11232D02*
X16745D01*
Y11388D01*
X16655D01*
Y11232D01*
G01X16712Y11565D02*
Y11475D01*
X16868D01*
Y11565D01*
X16712D01*
G01X17015Y10748D02*
X16925D01*
Y10592D01*
X17015D01*
Y10748D01*
G01X17155Y10688D02*
Y10532D01*
X17065D01*
Y10688D01*
X17155D01*
G01X16846Y11166D02*
X16915D01*
Y11109D01*
X16952D01*
Y10994D01*
X16808D01*
Y11110D01*
X16845D01*
Y11165D01*
G01X17035Y11202D02*
X17125D01*
Y11358D01*
X17035D01*
Y11202D01*
G01X17292Y10535D02*
Y10445D01*
X17448D01*
Y10535D01*
X17292D01*
G01X17285Y11358D02*
X17195D01*
Y11202D01*
X17285D01*
Y11358D01*
G01X17338Y11385D02*
X17182D01*
Y11475D01*
X17338D01*
Y11385D01*
G01X17405Y11638D02*
Y11482D01*
X17315D01*
Y11638D01*
X17405D01*
G01X17580Y10771D02*
Y11049D01*
X17720D01*
Y10771D01*
X17580D01*
G01X17568Y10585D02*
Y10675D01*
X17412D01*
Y10585D01*
X17568D01*
G01X17645Y11102D02*
X17735D01*
Y11258D01*
X17645D01*
Y11102D01*
G01X17412Y11278D02*
Y11082D01*
X17528D01*
Y11278D01*
X17412D01*
G01X17820Y11619D02*
Y11341D01*
X17680D01*
Y11619D01*
X17820D01*
G01X17555Y11312D02*
Y11468D01*
X17645D01*
Y11312D01*
X17555D01*
G01X17446Y11276D02*
Y11245D01*
X17494D01*
Y11276D01*
X17494Y11277D01*
G01X17845Y10918D02*
X17755D01*
Y10762D01*
X17845D01*
Y10918D01*
G01X17885Y10752D02*
X17975D01*
Y10908D01*
X17885D01*
Y10752D01*
G01X18040Y11729D02*
Y11451D01*
X17900D01*
Y11729D01*
X18040D01*
G01X18348Y10995D02*
Y11085D01*
X18192D01*
Y10995D01*
X18348D01*
G01X18208Y11245D02*
Y11335D01*
X18052D01*
Y11245D01*
X18208D01*
G01X18132Y11215D02*
Y11125D01*
X18288D01*
Y11215D01*
X18132D01*
G01X18155Y11748D02*
Y11592D01*
X18065D01*
Y11748D01*
X18155D01*
G01X18330Y11769D02*
Y11491D01*
X18190D01*
Y11769D01*
X18330D01*
G01X18525Y10132D02*
X18615D01*
Y10288D01*
X18525D01*
Y10132D01*
G01X18424Y11154D02*
X18355D01*
Y11211D01*
X18318D01*
Y11326D01*
X18462D01*
Y11210D01*
X18425D01*
Y11155D01*
G01X15240Y9880D02*
Y11880D01*
X19240D01*
Y9880D01*
X15240D01*
G01X15646Y10570D02*
Y10620D01*
X15662D01*
X15667Y10617D01*
X15670Y10614D01*
X15672Y10608D01*
X15670Y10601D01*
X15667Y10597D01*
X15662Y10594D01*
X15646D01*
G01X15662D02*
X15672Y10570D01*
G01X15710D02*
Y10620D01*
X15702Y10610D01*
G01Y10570D02*
X15718D01*
G01X15761D02*
X15765Y10571D01*
X15770Y10573D01*
X15774Y10577D01*
X15775Y10583D01*
X15774Y10589D01*
X15770Y10594D01*
X15764Y10597D01*
X15758D01*
X15754Y10598D01*
X15751Y10602D01*
X15750Y10608D01*
X15752Y10614D01*
X15756Y10618D01*
X15761Y10620D01*
X15766Y10618D01*
X15770Y10614D01*
X15772Y10608D01*
X15771Y10602D01*
X15768Y10598D01*
X15764Y10597D01*
X15758D01*
X15752Y10594D01*
X15748Y10589D01*
X15747Y10583D01*
X15748Y10577D01*
X15752Y10573D01*
X15757Y10571D01*
X15761Y10570D01*
G01X16056Y10237D02*
X16058Y10241D01*
X16060Y10245D01*
Y10250D01*
X16057Y10256D01*
X16053Y10260D01*
X16048Y10264D01*
X16040Y10266D01*
X16032Y10267D01*
X16025Y10266D01*
X16020Y10264D01*
X16015Y10260D01*
X16012Y10255D01*
X16010Y10251D01*
Y10247D01*
X16012Y10242D01*
X16014Y10238D01*
X16017Y10235D01*
G01X16031Y10212D02*
X16037Y10208D01*
X16040Y10204D01*
X16042Y10199D01*
X16040Y10194D01*
X16037Y10191D01*
X16032Y10189D01*
X16026Y10188D01*
X16021Y10189D01*
X16016Y10191D01*
X16012Y10195D01*
X16010Y10199D01*
X16012Y10204D01*
X16017Y10209D01*
X16024Y10211D01*
X16032Y10212D01*
X16043Y10211D01*
X16049Y10209D01*
X16055Y10206D01*
X16059Y10201D01*
X16060Y10197D01*
X16058Y10192D01*
X16054Y10189D01*
G01X16000Y10000D02*
Y10500D01*
X16625D01*
Y10000D01*
X16000D01*
G01X16200Y11246D02*
X16150D01*
Y11262D01*
X16153Y11267D01*
X16156Y11270D01*
X16163Y11272D01*
X16169Y11270D01*
X16173Y11267D01*
X16176Y11262D01*
Y11246D01*
G01Y11262D02*
X16200Y11272D01*
G01Y11310D02*
X16150D01*
X16160Y11302D01*
G01X16200D02*
Y11318D01*
G01X16056Y11590D02*
Y11640D01*
X16072D01*
X16077Y11637D01*
X16080Y11634D01*
X16082Y11628D01*
X16080Y11621D01*
X16077Y11617D01*
X16072Y11614D01*
X16056D01*
G01X16072D02*
X16082Y11590D01*
G01X16106Y11600D02*
X16110Y11594D01*
X16115Y11591D01*
X16121Y11590D01*
X16126Y11591D01*
X16131Y11595D01*
X16134Y11600D01*
X16135Y11605D01*
X16133Y11611D01*
X16129Y11615D01*
X16124Y11617D01*
X16119D01*
G01X16124D02*
X16128Y11619D01*
X16131Y11623D01*
X16133Y11628D01*
X16131Y11633D01*
X16128Y11637D01*
X16123Y11640D01*
X16117Y11639D01*
X16111Y11636D01*
G01X16216Y10910D02*
Y10960D01*
X16232D01*
X16237Y10957D01*
X16240Y10954D01*
X16242Y10948D01*
X16240Y10941D01*
X16237Y10937D01*
X16232Y10934D01*
X16216D01*
G01X16232D02*
X16242Y10910D01*
G01X16268Y10952D02*
X16272Y10957D01*
X16276Y10959D01*
X16281Y10960D01*
X16288Y10958D01*
X16292Y10954D01*
X16293Y10949D01*
X16293Y10944D01*
X16290Y10940D01*
X16277Y10932D01*
X16272Y10926D01*
X16268Y10917D01*
X16267Y10910D01*
X16293D01*
G01X16439Y10940D02*
X16434Y10941D01*
X16430Y10944D01*
X16426Y10949D01*
X16423Y10955D01*
X16422Y10962D01*
Y10968D01*
X16423Y10975D01*
X16426Y10981D01*
X16430Y10986D01*
X16434Y10989D01*
X16439Y10990D01*
X16444Y10989D01*
X16449Y10986D01*
X16452Y10981D01*
X16455Y10975D01*
X16456Y10968D01*
Y10962D01*
X16455Y10955D01*
X16452Y10949D01*
X16449Y10944D01*
X16444Y10941D01*
X16439Y10940D01*
G01X16444Y10953D02*
X16452Y10940D01*
G01X16490D02*
Y10990D01*
X16483Y10980D01*
G01Y10940D02*
X16498D01*
G01X16406Y11230D02*
Y11280D01*
X16422D01*
X16427Y11277D01*
X16430Y11274D01*
X16432Y11268D01*
X16430Y11261D01*
X16427Y11257D01*
X16422Y11254D01*
X16406D01*
G01X16422D02*
X16432Y11230D01*
G01X16478D02*
Y11280D01*
X16454Y11244D01*
X16486D01*
G01X16279Y11590D02*
X16274Y11591D01*
X16270Y11594D01*
X16266Y11599D01*
X16263Y11605D01*
X16262Y11612D01*
Y11618D01*
X16263Y11625D01*
X16266Y11631D01*
X16270Y11636D01*
X16274Y11639D01*
X16279Y11640D01*
X16284Y11639D01*
X16289Y11636D01*
X16292Y11631D01*
X16295Y11625D01*
X16296Y11618D01*
Y11612D01*
X16295Y11605D01*
X16292Y11599D01*
X16289Y11594D01*
X16284Y11591D01*
X16279Y11590D01*
G01X16284Y11603D02*
X16292Y11590D01*
G01X16318Y11632D02*
X16322Y11637D01*
X16326Y11639D01*
X16332Y11640D01*
X16338Y11638D01*
X16342Y11634D01*
X16344Y11629D01*
X16343Y11624D01*
X16340Y11620D01*
X16328Y11612D01*
X16322Y11606D01*
X16318Y11597D01*
X16317Y11590D01*
X16344D01*
G01X16625Y10000D02*
Y10500D01*
X17250D01*
Y10000D01*
X16625D01*
G01X16626Y10920D02*
Y10970D01*
X16642D01*
X16647Y10967D01*
X16650Y10964D01*
X16652Y10958D01*
X16650Y10951D01*
X16647Y10947D01*
X16642Y10944D01*
X16626D01*
G01X16642D02*
X16652Y10920D01*
G01X16690D02*
X16694Y10921D01*
X16700Y10923D01*
X16703Y10927D01*
X16704Y10933D01*
X16703Y10939D01*
X16699Y10944D01*
X16693Y10947D01*
X16687D01*
X16683Y10948D01*
X16680Y10952D01*
X16679Y10958D01*
X16681Y10964D01*
X16685Y10968D01*
X16690Y10970D01*
X16695Y10968D01*
X16700Y10964D01*
X16701Y10958D01*
X16700Y10952D01*
X16697Y10948D01*
X16693Y10947D01*
X16687D01*
X16681Y10944D01*
X16677Y10939D01*
X16676Y10933D01*
X16677Y10927D01*
X16681Y10923D01*
X16686Y10921D01*
X16690Y10920D01*
G01X16810Y11296D02*
X16760D01*
Y11312D01*
X16763Y11317D01*
X16766Y11320D01*
X16772Y11322D01*
X16779Y11320D01*
X16783Y11317D01*
X16786Y11312D01*
Y11296D01*
G01Y11312D02*
X16810Y11322D01*
G01Y11359D02*
X16799Y11360D01*
X16790Y11362D01*
X16782Y11364D01*
X16772Y11368D01*
X16760Y11373D01*
Y11347D01*
G01X16506Y11390D02*
Y11440D01*
X16522D01*
X16527Y11437D01*
X16530Y11434D01*
X16532Y11428D01*
X16530Y11421D01*
X16527Y11417D01*
X16522Y11414D01*
X16506D01*
G01X16522D02*
X16532Y11390D01*
G01X16556Y11397D02*
X16560Y11393D01*
X16564Y11391D01*
X16570Y11390D01*
X16576Y11392D01*
X16580Y11395D01*
X16583Y11401D01*
X16584Y11407D01*
X16583Y11414D01*
X16580Y11418D01*
X16575Y11422D01*
X16571Y11422D01*
X16566Y11422D01*
X16560Y11418D01*
X16562Y11440D01*
X16580D01*
G01X16756Y11580D02*
Y11630D01*
X16772D01*
X16777Y11627D01*
X16780Y11624D01*
X16782Y11618D01*
X16780Y11611D01*
X16777Y11607D01*
X16772Y11604D01*
X16756D01*
G01X16772D02*
X16782Y11580D01*
G01X16808Y11601D02*
X16812Y11607D01*
X16816Y11610D01*
X16821Y11612D01*
X16826Y11610D01*
X16829Y11607D01*
X16831Y11602D01*
X16832Y11596D01*
X16831Y11591D01*
X16829Y11586D01*
X16825Y11582D01*
X16821Y11580D01*
X16816Y11582D01*
X16811Y11587D01*
X16809Y11594D01*
X16808Y11603D01*
X16809Y11613D01*
X16811Y11619D01*
X16814Y11625D01*
X16819Y11629D01*
X16823Y11630D01*
X16828Y11628D01*
X16831Y11624D01*
G01X16553Y11746D02*
X16549Y11748D01*
X16545Y11750D01*
X16540D01*
X16534Y11747D01*
X16530Y11743D01*
X16526Y11738D01*
X16524Y11730D01*
X16523Y11722D01*
X16524Y11715D01*
X16526Y11710D01*
X16530Y11705D01*
X16535Y11702D01*
X16539Y11700D01*
X16543D01*
X16548Y11702D01*
X16552Y11704D01*
X16555Y11707D01*
G01X16590Y11700D02*
Y11750D01*
X16582Y11740D01*
G01Y11700D02*
X16598D01*
G01X16846Y10520D02*
Y10570D01*
X16862D01*
X16867Y10567D01*
X16870Y10564D01*
X16872Y10558D01*
X16870Y10551D01*
X16867Y10547D01*
X16862Y10544D01*
X16846D01*
G01X16862D02*
X16872Y10520D01*
G01X16898Y10562D02*
X16902Y10567D01*
X16906Y10569D01*
X16911Y10570D01*
X16918Y10568D01*
X16922Y10564D01*
X16923Y10559D01*
X16923Y10554D01*
X16920Y10550D01*
X16907Y10542D01*
X16902Y10536D01*
X16898Y10527D01*
X16897Y10520D01*
X16923D01*
G01X16950Y10526D02*
X16955Y10522D01*
X16960Y10520D01*
X16965Y10522D01*
X16969Y10527D01*
X16972Y10534D01*
X16974Y10542D01*
Y10551D01*
X16972Y10558D01*
X16969Y10565D01*
X16965Y10568D01*
X16961Y10570D01*
X16956Y10568D01*
X16952Y10565D01*
X16950Y10560D01*
X16948Y10553D01*
X16950Y10548D01*
X16953Y10542D01*
X16957Y10538D01*
X16961Y10537D01*
X16966Y10539D01*
X16970Y10543D01*
X16974Y10551D01*
G01X17113Y10756D02*
X17109Y10758D01*
X17105Y10760D01*
X17100D01*
X17094Y10757D01*
X17090Y10753D01*
X17086Y10748D01*
X17084Y10740D01*
X17083Y10732D01*
X17084Y10725D01*
X17086Y10720D01*
X17090Y10715D01*
X17095Y10712D01*
X17099Y10710D01*
X17103D01*
X17108Y10712D01*
X17112Y10714D01*
X17115Y10717D01*
G01X17150Y10710D02*
Y10760D01*
X17142Y10750D01*
G01Y10710D02*
X17158D01*
G01X17201D02*
Y10760D01*
X17193Y10750D01*
G01Y10710D02*
X17209D01*
G01X16835Y10920D02*
Y10970D01*
X16848D01*
X16853Y10967D01*
X16857Y10964D01*
X16860Y10959D01*
X16862Y10953D01*
X16863Y10945D01*
X16862Y10937D01*
X16860Y10931D01*
X16857Y10926D01*
X16853Y10922D01*
X16848Y10920D01*
X16835D01*
G01X16900D02*
Y10970D01*
X16892Y10960D01*
G01Y10920D02*
X16908D01*
G01X17006Y11140D02*
Y11190D01*
X17022D01*
X17027Y11187D01*
X17030Y11184D01*
X17032Y11178D01*
X17030Y11171D01*
X17027Y11167D01*
X17022Y11164D01*
X17006D01*
G01X17022D02*
X17032Y11140D01*
G01X17070D02*
Y11190D01*
X17062Y11180D01*
G01Y11140D02*
X17078D01*
G01X17110Y11146D02*
X17115Y11142D01*
X17120Y11140D01*
X17125Y11142D01*
X17129Y11147D01*
X17132Y11154D01*
X17134Y11162D01*
Y11171D01*
X17132Y11178D01*
X17129Y11185D01*
X17125Y11188D01*
X17121Y11190D01*
X17116Y11188D01*
X17112Y11185D01*
X17110Y11180D01*
X17108Y11173D01*
X17110Y11168D01*
X17113Y11162D01*
X17117Y11158D01*
X17121Y11157D01*
X17126Y11159D01*
X17130Y11163D01*
X17134Y11171D01*
G01X16982Y11673D02*
X16977Y11674D01*
X16972Y11677D01*
X16968Y11682D01*
X16966Y11688D01*
X16965Y11694D01*
Y11701D01*
X16966Y11708D01*
X16968Y11714D01*
X16972Y11719D01*
X16977Y11722D01*
X16982Y11723D01*
X16987Y11722D01*
X16991Y11719D01*
X16995Y11714D01*
X16998Y11708D01*
X16999Y11701D01*
Y11694D01*
X16998Y11688D01*
X16995Y11682D01*
X16991Y11677D01*
X16987Y11674D01*
X16982Y11673D01*
G01X16987Y11686D02*
X16995Y11673D01*
G01X17019Y11683D02*
X17023Y11677D01*
X17028Y11674D01*
X17034Y11673D01*
X17039Y11674D01*
X17044Y11678D01*
X17047Y11683D01*
X17048Y11688D01*
X17046Y11694D01*
X17042Y11698D01*
X17037Y11699D01*
X17032D01*
G01X17037D02*
X17041Y11702D01*
X17044Y11706D01*
X17046Y11711D01*
X17044Y11716D01*
X17041Y11720D01*
X17036Y11723D01*
X17030Y11722D01*
X17024Y11719D01*
G01X17250Y10000D02*
Y10500D01*
X17875D01*
Y10000D01*
X17250D01*
G01X17316Y10370D02*
Y10420D01*
X17332D01*
X17337Y10417D01*
X17340Y10414D01*
X17342Y10408D01*
X17340Y10401D01*
X17337Y10397D01*
X17332Y10394D01*
X17316D01*
G01X17332D02*
X17342Y10370D01*
G01X17366Y10380D02*
X17370Y10374D01*
X17375Y10371D01*
X17381Y10370D01*
X17386Y10371D01*
X17391Y10375D01*
X17394Y10380D01*
X17395Y10385D01*
X17393Y10391D01*
X17389Y10395D01*
X17384Y10397D01*
X17379D01*
G01X17384D02*
X17388Y10399D01*
X17391Y10403D01*
X17393Y10408D01*
X17391Y10413D01*
X17388Y10417D01*
X17383Y10420D01*
X17377Y10419D01*
X17371Y10416D01*
G01X17431Y10420D02*
X17426Y10418D01*
X17422Y10414D01*
X17420Y10409D01*
X17418Y10402D01*
X17417Y10395D01*
X17418Y10387D01*
X17420Y10381D01*
X17422Y10376D01*
X17426Y10372D01*
X17431Y10370D01*
X17436Y10372D01*
X17440Y10376D01*
X17442Y10381D01*
X17444Y10387D01*
X17445Y10395D01*
X17444Y10402D01*
X17442Y10409D01*
X17440Y10414D01*
X17436Y10418D01*
X17431Y10420D01*
G01X17376Y10700D02*
Y10750D01*
X17392D01*
X17397Y10747D01*
X17400Y10744D01*
X17402Y10738D01*
X17400Y10731D01*
X17397Y10727D01*
X17392Y10724D01*
X17376D01*
G01X17392D02*
X17402Y10700D01*
G01X17428Y10742D02*
X17432Y10747D01*
X17436Y10749D01*
X17441Y10750D01*
X17448Y10748D01*
X17452Y10744D01*
X17453Y10739D01*
X17453Y10734D01*
X17450Y10730D01*
X17437Y10722D01*
X17432Y10716D01*
X17428Y10707D01*
X17427Y10700D01*
X17453D01*
G01X17491D02*
X17495Y10701D01*
X17500Y10703D01*
X17504Y10707D01*
X17505Y10713D01*
X17504Y10719D01*
X17500Y10724D01*
X17494Y10727D01*
X17488D01*
X17484Y10728D01*
X17481Y10732D01*
X17480Y10738D01*
X17482Y10744D01*
X17486Y10748D01*
X17491Y10750D01*
X17496Y10748D01*
X17500Y10744D01*
X17502Y10738D01*
X17501Y10732D01*
X17498Y10728D01*
X17494Y10727D01*
X17488D01*
X17482Y10724D01*
X17478Y10719D01*
X17477Y10713D01*
X17478Y10707D01*
X17482Y10703D01*
X17487Y10701D01*
X17491Y10700D01*
G01X17260Y11154D02*
X17310D01*
Y11138D01*
X17307Y11133D01*
X17304Y11130D01*
X17298Y11128D01*
X17291Y11130D01*
X17287Y11133D01*
X17284Y11138D01*
Y11154D01*
G01Y11138D02*
X17260Y11128D01*
G01Y11090D02*
X17310D01*
X17300Y11098D01*
G01X17260D02*
Y11082D01*
G01Y11031D02*
X17310D01*
X17274Y11055D01*
Y11023D01*
G01X17290Y11248D02*
Y11298D01*
X17282Y11288D01*
G01Y11248D02*
X17297D01*
G01X17323Y11696D02*
X17319Y11698D01*
X17315Y11700D01*
X17310D01*
X17304Y11697D01*
X17300Y11693D01*
X17296Y11688D01*
X17294Y11680D01*
X17293Y11672D01*
X17294Y11665D01*
X17296Y11660D01*
X17300Y11655D01*
X17305Y11652D01*
X17309Y11650D01*
X17313D01*
X17318Y11652D01*
X17322Y11654D01*
X17325Y11657D01*
G01X17348Y11692D02*
X17352Y11697D01*
X17356Y11699D01*
X17361Y11700D01*
X17368Y11698D01*
X17372Y11694D01*
X17373Y11689D01*
X17373Y11684D01*
X17370Y11680D01*
X17357Y11672D01*
X17352Y11666D01*
X17348Y11657D01*
X17347Y11650D01*
X17373D01*
G01X17173Y11536D02*
X17169Y11538D01*
X17165Y11540D01*
X17160D01*
X17154Y11537D01*
X17150Y11533D01*
X17146Y11528D01*
X17144Y11520D01*
X17143Y11513D01*
X17144Y11505D01*
X17146Y11500D01*
X17150Y11495D01*
X17155Y11492D01*
X17159Y11490D01*
X17163D01*
X17168Y11492D01*
X17172Y11494D01*
X17175Y11497D01*
G01X17196D02*
X17200Y11493D01*
X17204Y11491D01*
X17210Y11490D01*
X17216Y11492D01*
X17220Y11495D01*
X17223Y11501D01*
X17224Y11507D01*
X17223Y11514D01*
X17220Y11518D01*
X17215Y11522D01*
X17211Y11522D01*
X17206Y11522D01*
X17200Y11518D01*
X17202Y11540D01*
X17220D01*
G01X17560Y10756D02*
X17510D01*
Y10772D01*
X17513Y10777D01*
X17516Y10780D01*
X17522Y10782D01*
X17529Y10780D01*
X17533Y10777D01*
X17536Y10772D01*
Y10756D01*
G01Y10772D02*
X17560Y10782D01*
G01X17518Y10808D02*
X17513Y10812D01*
X17511Y10816D01*
X17510Y10821D01*
X17512Y10828D01*
X17516Y10832D01*
X17521Y10833D01*
X17526Y10833D01*
X17530Y10830D01*
X17538Y10817D01*
X17544Y10812D01*
X17553Y10808D01*
X17560Y10807D01*
Y10833D01*
G01X17518Y10859D02*
X17513Y10863D01*
X17511Y10867D01*
X17510Y10872D01*
X17512Y10879D01*
X17516Y10883D01*
X17521Y10884D01*
X17526Y10884D01*
X17530Y10881D01*
X17538Y10868D01*
X17544Y10863D01*
X17553Y10859D01*
X17560Y10858D01*
Y10884D01*
G01X17425Y11070D02*
Y11034D01*
X17428Y11027D01*
X17433Y11022D01*
X17439Y11020D01*
X17445Y11022D01*
X17450Y11027D01*
X17453Y11034D01*
Y11070D01*
G01X17490Y11020D02*
Y11070D01*
X17482Y11060D01*
G01Y11020D02*
X17498D01*
G01X17494Y11393D02*
X17492Y11389D01*
X17490Y11385D01*
Y11380D01*
X17493Y11374D01*
X17497Y11370D01*
X17502Y11366D01*
X17510Y11364D01*
X17518Y11363D01*
X17525Y11364D01*
X17530Y11366D01*
X17535Y11370D01*
X17538Y11375D01*
X17540Y11379D01*
Y11383D01*
X17538Y11388D01*
X17536Y11392D01*
X17533Y11395D01*
G01X17540Y11438D02*
X17490D01*
X17526Y11414D01*
Y11446D01*
G01X17522Y11633D02*
X17517Y11634D01*
X17512Y11637D01*
X17508Y11642D01*
X17506Y11648D01*
X17505Y11654D01*
Y11661D01*
X17506Y11668D01*
X17508Y11674D01*
X17512Y11679D01*
X17517Y11682D01*
X17522Y11683D01*
X17527Y11682D01*
X17531Y11679D01*
X17535Y11674D01*
X17538Y11668D01*
X17539Y11661D01*
Y11654D01*
X17538Y11648D01*
X17535Y11642D01*
X17531Y11637D01*
X17527Y11634D01*
X17522Y11633D01*
G01X17527Y11646D02*
X17535Y11633D01*
G01X17581D02*
Y11683D01*
X17557Y11647D01*
X17589D01*
G01X17875Y10000D02*
Y10500D01*
X18500D01*
Y10000D01*
X17875D01*
G01X17770Y10734D02*
X17820D01*
Y10718D01*
X17817Y10713D01*
X17814Y10710D01*
X17808Y10708D01*
X17801Y10710D01*
X17797Y10713D01*
X17794Y10718D01*
Y10734D01*
G01Y10718D02*
X17770Y10708D01*
G01X17812Y10682D02*
X17817Y10678D01*
X17819Y10674D01*
X17820Y10669D01*
X17818Y10662D01*
X17814Y10658D01*
X17809Y10657D01*
X17804Y10657D01*
X17800Y10660D01*
X17792Y10673D01*
X17786Y10678D01*
X17777Y10682D01*
X17770Y10683D01*
Y10657D01*
G01Y10620D02*
X17781Y10619D01*
X17790Y10617D01*
X17798Y10615D01*
X17808Y10611D01*
X17820Y10606D01*
Y10632D01*
G01X17955Y10951D02*
X17905D01*
Y10967D01*
X17908Y10972D01*
X17911Y10975D01*
X17918Y10977D01*
X17924Y10975D01*
X17928Y10972D01*
X17931Y10967D01*
Y10951D01*
G01Y10967D02*
X17955Y10977D01*
G01X17913Y11003D02*
X17908Y11007D01*
X17906Y11011D01*
X17905Y11016D01*
X17907Y11023D01*
X17911Y11027D01*
X17916Y11028D01*
X17921Y11028D01*
X17925Y11025D01*
X17933Y11012D01*
X17939Y11007D01*
X17948Y11003D01*
X17955Y11002D01*
Y11028D01*
G01X17934Y11054D02*
X17928Y11058D01*
X17925Y11062D01*
X17923Y11067D01*
X17925Y11072D01*
X17928Y11075D01*
X17933Y11077D01*
X17939Y11078D01*
X17944Y11077D01*
X17949Y11075D01*
X17953Y11071D01*
X17955Y11067D01*
X17953Y11062D01*
X17948Y11057D01*
X17941Y11055D01*
X17932Y11054D01*
X17922Y11055D01*
X17916Y11057D01*
X17910Y11060D01*
X17906Y11065D01*
X17905Y11069D01*
X17907Y11074D01*
X17911Y11077D01*
G01X17986Y11180D02*
Y11230D01*
X18002D01*
X18007Y11227D01*
X18010Y11224D01*
X18012Y11218D01*
X18010Y11211D01*
X18007Y11207D01*
X18002Y11204D01*
X17986D01*
G01X18002D02*
X18012Y11180D01*
G01X18050D02*
Y11230D01*
X18042Y11220D01*
G01Y11180D02*
X18058D01*
G01X18089Y11222D02*
X18093Y11227D01*
X18097Y11229D01*
X18102Y11230D01*
X18109Y11228D01*
X18113Y11224D01*
X18114Y11219D01*
X18114Y11214D01*
X18111Y11210D01*
X18098Y11202D01*
X18093Y11196D01*
X18089Y11187D01*
X18088Y11180D01*
X18114D01*
G01X17800Y11106D02*
X17750D01*
Y11122D01*
X17753Y11127D01*
X17756Y11130D01*
X17762Y11132D01*
X17769Y11130D01*
X17773Y11127D01*
X17776Y11122D01*
Y11106D01*
G01Y11122D02*
X17800Y11132D01*
G01X17758Y11158D02*
X17753Y11162D01*
X17751Y11166D01*
X17750Y11171D01*
X17752Y11178D01*
X17756Y11182D01*
X17761Y11183D01*
X17766Y11183D01*
X17770Y11180D01*
X17778Y11167D01*
X17784Y11162D01*
X17793Y11158D01*
X17800Y11157D01*
Y11183D01*
G01X17793Y11207D02*
X17797Y11211D01*
X17799Y11215D01*
X17800Y11221D01*
X17798Y11227D01*
X17795Y11231D01*
X17789Y11234D01*
X17783Y11235D01*
X17776Y11234D01*
X17772Y11231D01*
X17768Y11226D01*
X17768Y11222D01*
X17768Y11217D01*
X17772Y11212D01*
X17750Y11213D01*
Y11231D01*
G01X17706Y11630D02*
Y11680D01*
X17722D01*
X17727Y11677D01*
X17730Y11674D01*
X17732Y11668D01*
X17730Y11661D01*
X17727Y11657D01*
X17722Y11654D01*
X17706D01*
G01X17722D02*
X17732Y11630D01*
G01X17759Y11636D02*
X17764Y11632D01*
X17769Y11630D01*
X17774Y11632D01*
X17778Y11637D01*
X17781Y11644D01*
X17783Y11652D01*
Y11661D01*
X17781Y11668D01*
X17778Y11675D01*
X17774Y11678D01*
X17770Y11680D01*
X17765Y11678D01*
X17761Y11675D01*
X17759Y11670D01*
X17757Y11663D01*
X17759Y11658D01*
X17762Y11652D01*
X17766Y11648D01*
X17770Y11647D01*
X17775Y11649D01*
X17779Y11653D01*
X17783Y11661D01*
G01X17846Y11750D02*
Y11800D01*
X17862D01*
X17867Y11797D01*
X17870Y11794D01*
X17872Y11788D01*
X17870Y11781D01*
X17867Y11777D01*
X17862Y11774D01*
X17846D01*
G01X17862D02*
X17872Y11750D01*
G01X17910D02*
Y11800D01*
X17902Y11790D01*
G01Y11750D02*
X17918D01*
G01X17961Y11800D02*
X17956Y11798D01*
X17952Y11794D01*
X17950Y11789D01*
X17948Y11782D01*
X17947Y11775D01*
X17948Y11767D01*
X17950Y11761D01*
X17952Y11756D01*
X17956Y11752D01*
X17961Y11750D01*
X17966Y11752D01*
X17970Y11756D01*
X17972Y11761D01*
X17974Y11767D01*
X17975Y11775D01*
X17974Y11782D01*
X17972Y11789D01*
X17970Y11794D01*
X17966Y11798D01*
X17961Y11800D01*
G01X18089Y10740D02*
X18084Y10741D01*
X18080Y10744D01*
X18076Y10749D01*
X18073Y10755D01*
X18072Y10762D01*
Y10768D01*
X18073Y10775D01*
X18076Y10781D01*
X18080Y10786D01*
X18084Y10789D01*
X18089Y10790D01*
X18094Y10789D01*
X18099Y10786D01*
X18102Y10781D01*
X18105Y10775D01*
X18106Y10768D01*
Y10762D01*
X18105Y10755D01*
X18102Y10749D01*
X18099Y10744D01*
X18094Y10741D01*
X18089Y10740D01*
G01X18094Y10753D02*
X18102Y10740D01*
G01X18128Y10761D02*
X18133Y10767D01*
X18136Y10770D01*
X18142Y10772D01*
X18146Y10770D01*
X18149Y10767D01*
X18152Y10762D01*
X18152Y10756D01*
X18152Y10751D01*
X18149Y10746D01*
X18145Y10742D01*
X18141Y10740D01*
X18136Y10742D01*
X18131Y10747D01*
X18129Y10754D01*
X18128Y10763D01*
X18129Y10773D01*
X18131Y10779D01*
X18135Y10785D01*
X18139Y10789D01*
X18143Y10790D01*
X18148Y10788D01*
X18151Y10784D01*
G01X18216Y10910D02*
Y10960D01*
X18232D01*
X18237Y10957D01*
X18240Y10954D01*
X18242Y10948D01*
X18240Y10941D01*
X18237Y10937D01*
X18232Y10934D01*
X18216D01*
G01X18232D02*
X18242Y10910D01*
G01X18280D02*
Y10960D01*
X18272Y10950D01*
G01Y10910D02*
X18288D01*
G01X18317Y10920D02*
X18321Y10914D01*
X18326Y10911D01*
X18332Y10910D01*
X18337Y10911D01*
X18342Y10915D01*
X18345Y10920D01*
X18346Y10925D01*
X18344Y10931D01*
X18340Y10935D01*
X18335Y10937D01*
X18330D01*
G01X18335D02*
X18339Y10939D01*
X18342Y10943D01*
X18344Y10948D01*
X18342Y10953D01*
X18339Y10957D01*
X18334Y10960D01*
X18328Y10959D01*
X18322Y10956D01*
G01X18066Y11350D02*
Y11400D01*
X18082D01*
X18087Y11397D01*
X18090Y11394D01*
X18092Y11388D01*
X18090Y11381D01*
X18087Y11377D01*
X18082Y11374D01*
X18066D01*
G01X18082D02*
X18092Y11350D01*
G01X18130D02*
Y11400D01*
X18122Y11390D01*
G01Y11350D02*
X18138D01*
G01X18180D02*
X18181Y11361D01*
X18183Y11370D01*
X18185Y11378D01*
X18189Y11388D01*
X18194Y11400D01*
X18168D01*
G01X18093Y11826D02*
X18089Y11828D01*
X18085Y11830D01*
X18080D01*
X18074Y11827D01*
X18070Y11823D01*
X18066Y11818D01*
X18064Y11810D01*
X18063Y11802D01*
X18064Y11795D01*
X18066Y11790D01*
X18070Y11785D01*
X18075Y11782D01*
X18079Y11780D01*
X18083D01*
X18088Y11782D01*
X18092Y11784D01*
X18095Y11787D01*
G01X18116Y11790D02*
X18120Y11784D01*
X18125Y11781D01*
X18131Y11780D01*
X18136Y11781D01*
X18141Y11785D01*
X18144Y11790D01*
X18145Y11795D01*
X18143Y11801D01*
X18139Y11805D01*
X18134Y11807D01*
X18129D01*
G01X18134D02*
X18138Y11809D01*
X18141Y11813D01*
X18143Y11818D01*
X18141Y11823D01*
X18138Y11827D01*
X18133Y11830D01*
X18127Y11829D01*
X18121Y11826D01*
G01X18226Y11790D02*
Y11840D01*
X18242D01*
X18247Y11837D01*
X18250Y11834D01*
X18252Y11828D01*
X18250Y11821D01*
X18247Y11817D01*
X18242Y11814D01*
X18226D01*
G01X18242D02*
X18252Y11790D01*
G01X18290D02*
Y11840D01*
X18282Y11830D01*
G01Y11790D02*
X18298D01*
G01X18341D02*
Y11840D01*
X18333Y11830D01*
G01Y11790D02*
X18349D01*
G01X18595Y10331D02*
X18545D01*
Y10347D01*
X18548Y10352D01*
X18551Y10355D01*
X18558Y10357D01*
X18564Y10355D01*
X18568Y10352D01*
X18571Y10347D01*
Y10331D01*
G01Y10347D02*
X18595Y10357D01*
G01Y10395D02*
X18545D01*
X18555Y10387D01*
G01X18595D02*
Y10403D01*
G01X18574Y10434D02*
X18568Y10438D01*
X18565Y10442D01*
X18563Y10447D01*
X18565Y10452D01*
X18568Y10455D01*
X18573Y10457D01*
X18579Y10458D01*
X18584Y10457D01*
X18589Y10455D01*
X18593Y10451D01*
X18595Y10447D01*
X18593Y10442D01*
X18588Y10437D01*
X18581Y10435D01*
X18572Y10434D01*
X18562Y10435D01*
X18556Y10437D01*
X18550Y10440D01*
X18546Y10445D01*
X18545Y10449D01*
X18547Y10454D01*
X18551Y10457D01*
G01X18485Y11280D02*
X18535D01*
Y11267D01*
X18532Y11262D01*
X18529Y11258D01*
X18524Y11255D01*
X18518Y11253D01*
X18510Y11252D01*
X18502Y11253D01*
X18496Y11255D01*
X18491Y11258D01*
X18487Y11262D01*
X18485Y11267D01*
Y11280D01*
G01X18527Y11227D02*
X18532Y11223D01*
X18534Y11219D01*
X18535Y11214D01*
X18533Y11207D01*
X18529Y11203D01*
X18524Y11202D01*
X18519Y11202D01*
X18515Y11205D01*
X18507Y11218D01*
X18501Y11223D01*
X18492Y11227D01*
X18485Y11228D01*
Y11202D01*
G01X18479Y11490D02*
X18474Y11491D01*
X18470Y11494D01*
X18466Y11499D01*
X18463Y11505D01*
X18462Y11512D01*
Y11518D01*
X18463Y11525D01*
X18466Y11531D01*
X18470Y11536D01*
X18474Y11539D01*
X18479Y11540D01*
X18484Y11539D01*
X18489Y11536D01*
X18492Y11531D01*
X18495Y11525D01*
X18496Y11518D01*
Y11512D01*
X18495Y11505D01*
X18492Y11499D01*
X18489Y11494D01*
X18484Y11491D01*
X18479Y11490D01*
G01X18484Y11503D02*
X18492Y11490D01*
G01X18516Y11497D02*
X18520Y11493D01*
X18525Y11491D01*
X18530Y11490D01*
X18536Y11492D01*
X18540Y11495D01*
X18544Y11501D01*
X18544Y11507D01*
X18543Y11514D01*
X18540Y11518D01*
X18535Y11522D01*
X18531Y11522D01*
X18526Y11522D01*
X18521Y11518D01*
X18523Y11540D01*
X18540D01*
G54D16*
X16690Y10680D03*
X17280D03*
X17920Y10610D03*
X17940Y11140D03*
G54D17*
X16592Y10680D03*
X17280Y10601D03*
X17920Y10708D03*
X17861Y11140D03*
G54D18*
X16917Y11037D03*
X16843D03*
X16880Y11123D03*
X18353Y11283D03*
X18427D03*
X18390Y11197D03*
G54D19*
X17359Y11105D03*
Y11205D03*
Y11155D03*
X17581Y11105D03*
Y11155D03*
Y11205D03*
Y11255D03*
M02*
