G04 ================== begin FILE IDENTIFICATION RECORD ==================*
G04 Layout Name:  D:/Misc/Misc/808BD/worklib/808bd/physical/808bd23.brd*
G04 Film Name:    TOP*
G04 File Format:  Gerber RS274X*
G04 File Origin:  Cadence Allegro 16.3-S021*
G04 Origin Date:  Fri Jan 04 09:04:26 2013*
G04 *
G04 Layer:  ETCH/TOP*
G04 Layer:  PIN/TOP*
G04 Layer:  VIA CLASS/TOP*
G04 *
G04 Offset:    (0.000 0.000)*
G04 Mirror:    No*
G04 Mode:      Positive*
G04 Rotation:  0*
G04 FullContactRelief:  No*
G04 UndefLineWidth:     10.000*
G04 ================== end FILE IDENTIFICATION RECORD ====================*
%FSLAX53Y53*MOIN*%
%IR0*IPPOS*OFA0.00000B0.00000*MIA0B0*SFA1.00000B1.00000*%
%ADD22R,.106299X.070866*%
%ADD21O,.07X.024*%
%ADD11R,.06X.052*%
%ADD19R,.07X.024*%
%ADD15R,.04X.028*%
%ADD13R,.052X.06*%
%ADD23R,.028X.04*%
%ADD18R,.04X.055*%
%ADD14C,.04*%
%ADD16C,.06*%
%ADD10C,.07*%
%ADD20C,.08*%
%ADD17R,.06X.06*%
%ADD12R,.07X.07*%
%ADD24C,.03*%
G75*
%LPD*%
G75*
G54D10*
X15462Y10235D03*
X15562D03*
X16070Y11150D03*
X16588Y10235D03*
X16688D03*
X17300Y10940D03*
X17400D03*
X17713Y10235D03*
X17660Y10740D03*
X17812Y10235D03*
X18838D03*
X18938D03*
G54D20*
X17440Y11340D03*
X17932D03*
G54D11*
X15920Y10193D03*
Y10267D03*
X16140Y11453D03*
Y11527D03*
X16260Y11117D03*
Y11043D03*
X16270Y11327D03*
Y11253D03*
X16670Y11117D03*
Y11043D03*
X16700Y11347D03*
Y11273D03*
X16540Y11287D03*
Y11213D03*
X16970Y10707D03*
Y10633D03*
X17110Y10573D03*
Y10647D03*
X17080Y11317D03*
Y11243D03*
X17240D03*
Y11317D03*
X17360Y11523D03*
Y11597D03*
X17600Y11427D03*
Y11353D03*
X17690Y11217D03*
Y11143D03*
X17800Y10803D03*
X17930Y10793D03*
X17800Y10877D03*
X17930Y10867D03*
X18110Y11633D03*
Y11707D03*
X18570Y10173D03*
Y10247D03*
G54D12*
X15662Y10235D03*
X16070Y11250D03*
X16788Y10235D03*
X17660Y10640D03*
X17500Y10940D03*
X17912Y10235D03*
X19038D03*
G54D21*
X17359Y11255D03*
G54D13*
X15663Y10490D03*
X15737D03*
X16503Y11490D03*
X16523Y11610D03*
X16827Y11520D03*
X16753D03*
X16577Y11490D03*
X16597Y11610D03*
X17407Y10490D03*
X17333D03*
X17223Y11430D03*
X17297D03*
X17453Y10630D03*
X17527D03*
X18233Y11040D03*
X18307D03*
X18093Y11290D03*
X18167D03*
X18247Y11170D03*
X18173D03*
G54D22*
X17650Y10823D03*
Y10997D03*
X17750Y11393D03*
Y11567D03*
X17970Y11503D03*
Y11677D03*
X18260Y11543D03*
Y11717D03*
G54D14*
X16110Y10780D03*
X16370D03*
X16400Y11340D03*
Y11570D03*
X16953Y11123D03*
X17217D03*
X17570Y10480D03*
X17870D03*
G54D23*
X18096Y10857D03*
X18044D03*
X18070Y10943D03*
X18416Y11417D03*
X18364D03*
X18390Y11503D03*
G54D24*
G01X15910Y10820D02*
X15480D01*
X15320Y10660D01*
Y10170D01*
X15410Y10080D01*
X15920D01*
G01X15663Y10490D02*
X15612D01*
X15602Y10480D01*
X15560D01*
X15462Y10382D01*
Y10235D01*
G01X15562D02*
X15662D01*
G01D02*
X15833D01*
X15865Y10267D01*
X15920D01*
G01X15737Y10490D02*
X16457D01*
X16592Y10625D01*
Y10680D01*
G01X15663Y10490D02*
Y10545D01*
X15680Y10562D01*
Y10620D01*
X15720Y10660D01*
X16170D01*
X16200Y10690D01*
Y10800D01*
X16290Y10890D01*
X17020D01*
X17080Y10950D01*
Y11243D01*
G01X15737Y10490D02*
Y10310D01*
X15662Y10235D01*
G01X15940Y11043D02*
Y10890D01*
X15910Y10860D01*
Y10820D01*
G01X16110Y10780D02*
X16060D01*
X16020Y10820D01*
X15910D01*
G01X16788Y10235D02*
Y10168D01*
X16700Y10080D01*
X15920D01*
G01Y10193D02*
Y10080D01*
G01X18427Y11360D02*
X18290D01*
X18166Y11484D01*
Y11586D01*
X18220Y11640D01*
X18350D01*
X18371Y11661D01*
Y11799D01*
X18341Y11829D01*
X16070D01*
X15940Y11699D01*
Y11043D01*
G01X16260D02*
X15940D01*
G01X16070Y11150D02*
X16130D01*
X16170Y11190D01*
Y11310D01*
X16187Y11327D01*
X16270D01*
G01X16070Y11250D02*
X16092Y11272D01*
Y11409D01*
X16136Y11453D01*
X16140D01*
G01Y11527D02*
X16230D01*
X16242Y11516D01*
X16287D01*
G01X16140Y11453D02*
X16275D01*
X16287Y11464D01*
G01X17100Y10470D02*
X16920D01*
X16870Y10520D01*
Y10660D01*
X16750Y10780D01*
X16370D01*
G01X16670Y11043D02*
X16615D01*
X16605Y11033D01*
X16444D01*
X16413Y11064D01*
X16407D01*
G01D02*
X16362D01*
X16340Y11043D01*
X16260D01*
G01Y11117D02*
X16360D01*
X16362Y11116D01*
X16407D01*
G01X16493Y11090D02*
Y11166D01*
X16540Y11213D01*
G01Y11287D02*
X16453D01*
X16400Y11340D01*
G01X16267Y11330D02*
X16270Y11327D01*
G01X16260Y11117D02*
Y11192D01*
X16270Y11202D01*
Y11253D01*
G01X16373Y11490D02*
X16503D01*
G01D02*
Y11590D01*
X16523Y11610D01*
G01X16400Y11570D02*
X16347D01*
X16293Y11516D01*
X16287D01*
G01X17920Y10610D02*
X17872Y10562D01*
X17832D01*
X17590Y10320D01*
X16710D01*
X16688Y10298D01*
Y10235D01*
G01X18570Y10173D02*
X18566D01*
X18463Y10070D01*
X17085D01*
X16920Y10235D01*
X16788D01*
G01X16588D02*
Y10295D01*
X16600Y10308D01*
Y10400D01*
X16690Y10490D01*
Y10680D01*
G01X16670Y11043D02*
X16792D01*
X16798Y11037D01*
X16843D01*
G01X16929Y11261D02*
X16917Y11273D01*
X16700D01*
G01X16827Y11520D02*
Y11484D01*
X16715Y11372D01*
Y11362D01*
X16700Y11347D01*
G01X16670Y11117D02*
X16829D01*
X16835Y11123D01*
X16880D01*
G01X16577Y11490D02*
Y11435D01*
X16610Y11402D01*
Y11230D01*
X16670Y11170D01*
Y11117D01*
G01X16577Y11490D02*
X16597Y11510D01*
Y11610D01*
G01X16523D02*
Y11665D01*
X16548Y11690D01*
X16700D01*
X16753Y11637D01*
Y11520D01*
G01X17660Y10740D02*
X17680D01*
X17740Y10680D01*
Y10560D01*
X17550Y10370D01*
X17210D01*
X17110Y10470D01*
X17100D01*
G01X17110Y10573D02*
Y10480D01*
X17100Y10470D01*
G01X16970Y10633D02*
X17037D01*
X17052Y10647D01*
X17110D01*
G01X16970Y10707D02*
X16971D01*
X17020Y10757D01*
X17117D01*
X17300Y10940D01*
G01X17110Y10647D02*
X17192D01*
G01X16929Y11261D02*
X17020Y11170D01*
Y11000D01*
X16980Y10960D01*
X16867D01*
X16843Y10984D01*
Y11037D01*
G01X16929Y11261D02*
Y11533D01*
X16961Y11564D01*
X16967D01*
G01X16880Y11123D02*
X16953D01*
G01X17080Y11317D02*
X17240D01*
G01X17360Y11523D02*
X17015D01*
X16973Y11564D01*
X16967D01*
G01X17053Y11590D02*
X17298D01*
X17305Y11597D01*
X17360D01*
G01X16827Y11520D02*
Y11524D01*
X16919Y11616D01*
X16967D01*
G01X17407Y10490D02*
X17500D01*
X17597Y10587D01*
X17607D01*
X17660Y10640D01*
G01X17570Y10480D02*
X17510Y10420D01*
X17250D01*
X17192Y10478D01*
Y10647D01*
G01X17280Y10601D02*
Y10543D01*
X17333Y10490D01*
G01X17192Y10647D02*
X17225Y10680D01*
X17280D01*
G01X17453Y10630D02*
X17364D01*
X17335Y10601D01*
X17280D01*
G01X17300Y10940D02*
Y11069D01*
X17336Y11105D01*
X17359D01*
G01X17650Y10823D02*
X17572D01*
X17553Y10843D01*
X17437D01*
X17400Y10880D01*
Y10940D01*
G01X17600Y11353D02*
X17545D01*
X17520Y11328D01*
Y11320D01*
X17405Y11205D01*
X17359D01*
G01X17240Y11317D02*
X17247Y11310D01*
X17281D01*
X17336Y11255D01*
X17359D01*
G01X17240Y11317D02*
X17223Y11335D01*
Y11430D01*
G01X17440Y11340D02*
Y11313D01*
X17382Y11255D01*
X17359D01*
G01Y11205D02*
X17285D01*
X17247Y11243D01*
X17240D01*
G01X17217Y11123D02*
X17267D01*
X17299Y11155D01*
X17359D01*
G01X17507Y11576D02*
X17462D01*
X17440Y11597D01*
X17360D01*
G01Y11523D02*
X17460D01*
X17462Y11524D01*
X17507D01*
G01X17297Y11430D02*
X17542D01*
X17545Y11427D01*
X17600D01*
G01X17912Y10235D02*
X17910Y10232D01*
Y10180D01*
X17880Y10150D01*
X17680D01*
X17630Y10200D01*
Y10280D01*
X17780Y10430D01*
X18070D01*
X18150Y10510D01*
Y10950D01*
X18030Y11070D01*
X17820D01*
X17747Y11143D01*
G01X17650Y10823D02*
Y10750D01*
X17660Y10740D01*
G01D02*
X17582D01*
X17527Y10685D01*
Y10630D01*
G01X17500Y10940D02*
Y11234D01*
X17521Y11255D01*
X17581D01*
G01X18070Y10943D02*
X18007D01*
X17980Y10970D01*
X17770D01*
X17721Y10921D01*
X17579D01*
X17560Y10940D01*
X17500D01*
G01X17800Y10877D02*
X17797Y10880D01*
X17750D01*
X17693Y10823D01*
X17650D01*
G01X17581Y11105D02*
Y11065D01*
X17650Y10997D01*
G01X18093Y11290D02*
Y11294D01*
X17977Y11410D01*
X17910D01*
X17840Y11340D01*
Y11312D01*
X17745Y11217D01*
X17690D01*
G01X17581Y11255D02*
X17612D01*
X17750Y11393D01*
G01X17581Y11205D02*
X17678D01*
X17690Y11217D01*
G01X17581Y11155D02*
X17678D01*
X17690Y11143D01*
G01X17747D02*
X17690D01*
G01X18167Y11290D02*
Y11308D01*
X18060Y11415D01*
Y11560D01*
X18040Y11580D01*
X17900D01*
X17891Y11571D01*
Y11521D01*
X17830Y11460D01*
X17688D01*
X17655Y11427D01*
X17600D01*
G01X17970Y11677D02*
X17882D01*
X17840Y11635D01*
Y11528D01*
X17818Y11506D01*
X17815D01*
X17814Y11505D01*
X17686D01*
X17685Y11506D01*
X17682D01*
X17638Y11550D01*
X17593D01*
G01X17507Y11576D02*
X17513D01*
X17557Y11620D01*
X17679D01*
X17732Y11567D01*
X17750D01*
G01X17870Y10480D02*
X18040D01*
X18096Y10536D01*
Y10857D01*
G01X17940Y11140D02*
X18030D01*
X18200Y10970D01*
Y10380D01*
X18180Y10360D01*
X17840D01*
X17810Y10330D01*
Y10238D01*
X17812Y10235D01*
G01X17800Y10803D02*
X17833D01*
X17897Y10867D01*
X17930D01*
G01X17920Y10708D02*
Y10783D01*
X17930Y10793D01*
G01Y10867D02*
X17995D01*
X18005Y10857D01*
X18044D01*
G01X17932Y11340D02*
X17886Y11294D01*
Y11266D01*
X17763Y11143D01*
X17747D01*
G01X17861Y11140D02*
X17870Y11149D01*
Y11180D01*
X17910Y11220D01*
X18027D01*
X18093Y11286D01*
Y11290D01*
G01X17750Y11393D02*
X17833D01*
X17890Y11450D01*
X17899D01*
X17952Y11503D01*
X17970D01*
G01X17861Y11140D02*
X17851Y11150D01*
G01X18110Y11707D02*
X18097Y11720D01*
X18050D01*
X18007Y11677D01*
X17970D01*
G01X18307Y11040D02*
Y10903D01*
X18400Y10810D01*
X18600D01*
X18938Y10472D01*
Y10235D01*
G01X18390Y11503D02*
X18437D01*
X18490Y11450D01*
Y11130D01*
X18400Y11040D01*
X18307D01*
G01X18233D02*
Y11044D01*
X18173Y11104D01*
Y11170D01*
G01X18110Y11633D02*
Y11460D01*
X18250Y11320D01*
Y11228D01*
X18247Y11225D01*
Y11170D01*
G01D02*
X18318D01*
X18345Y11197D01*
X18390D01*
G01X18167Y11290D02*
Y11230D01*
X18173Y11225D01*
Y11170D01*
G01X18260Y11543D02*
X18333Y11471D01*
Y11454D01*
X18364Y11423D01*
Y11417D01*
G01X18110Y11707D02*
X18251D01*
X18260Y11717D01*
G01X18838Y10235D02*
X18637D01*
X18625Y10247D01*
X18570D01*
G01X18427Y11360D02*
X18416Y11372D01*
Y11417D01*
G01X18427Y11283D02*
Y11360D01*
G54D15*
X16407Y11064D03*
Y11116D03*
X16493Y11090D03*
X16287Y11464D03*
Y11516D03*
X16373Y11490D03*
X16967Y11564D03*
Y11616D03*
X17053Y11590D03*
X17507Y11524D03*
Y11576D03*
X17593Y11550D03*
G54D16*
X16592Y10680D03*
X17280Y10601D03*
X17920Y10708D03*
X17861Y11140D03*
G54D17*
X16690Y10680D03*
X17280D03*
X17920Y10610D03*
X17940Y11140D03*
G54D18*
X16917Y11037D03*
X16843D03*
X16880Y11123D03*
X18353Y11283D03*
X18427D03*
X18390Y11197D03*
G54D19*
X17359Y11105D03*
Y11155D03*
Y11205D03*
X17581Y11105D03*
Y11255D03*
Y11205D03*
Y11155D03*
M02*
